<?xml version="1.0" encoding="UTF-8" standalone="no"?>
<!-- Created with Inkscape (http://www.inkscape.org/) -->

<svg
   xmlns:dc="http://purl.org/dc/elements/1.1/"
   xmlns:cc="http://creativecommons.org/ns#"
   xmlns:rdf="http://www.w3.org/1999/02/22-rdf-syntax-ns#"
   xmlns:svg="http://www.w3.org/2000/svg"
   xmlns="http://www.w3.org/2000/svg"
   xmlns:sodipodi="http://sodipodi.sourceforge.net/DTD/sodipodi-0.dtd"
   xmlns:inkscape="http://www.inkscape.org/namespaces/inkscape"
   width="1024"
   height="232"
   viewBox="0 0 270.93333 61.383393"
   version="1.1"
   id="svg8"
   inkscape:version="0.92.3 (2405546, 2018-03-11)"
   sodipodi:docname="logo.svg"
   inkscape:export-filename="/home/sven/Desktop/logo.png"
   inkscape:export-xdpi="96"
   inkscape:export-ydpi="96">
  <defs
     id="defs2" />
  <sodipodi:namedview
     id="base"
     pagecolor="#ffffff"
     bordercolor="#666666"
     borderopacity="1.0"
     inkscape:pageopacity="0.0"
     inkscape:pageshadow="2"
     inkscape:zoom="0.5"
     inkscape:cx="853.55646"
     inkscape:cy="388.69947"
     inkscape:document-units="mm"
     inkscape:current-layer="layer1"
     showgrid="false"
     units="px"
     inkscape:window-width="1920"
     inkscape:window-height="1025"
     inkscape:window-x="0"
     inkscape:window-y="27"
     inkscape:window-maximized="1" />
  <metadata
     id="metadata5">
    <rdf:RDF>
      <cc:Work
         rdf:about="">
        <dc:format>image/svg+xml</dc:format>
        <dc:type
           rdf:resource="http://purl.org/dc/dcmitype/StillImage" />
        <dc:title></dc:title>
      </cc:Work>
    </rdf:RDF>
  </metadata>
  <g
     inkscape:label="Ebene 1"
     inkscape:groupmode="layer"
     id="layer1"
     transform="translate(0,-235.61673)">
    <g
       id="g5854">
      <path
         d="M 31.928645,283.42202 H 19.860011 v -35.32284 h 12.068634 q 7.260806,0 10.891212,2.64922 3.139809,2.30579 4.709713,6.96645 1.177425,3.67946 1.177425,7.9967 0,8.68353 -4.268173,13.39324 -3.924764,4.31723 -12.510177,4.31723 z m -8.732588,-32.47738 v 29.63193 h 7.996699 q 5.151245,0 8.291054,-1.61896 5.887139,-3.04168 5.887139,-13.24606 0,-10.20438 -6.083377,-13.44231 -2.452975,-1.3246 -8.094816,-1.3246 z"
         style="font-style:normal;font-variant:normal;font-weight:300;font-stretch:normal;font-size:98.77777863px;line-height:125%;font-family:'Helvetica Light';-inkscape-font-specification:'Helvetica Light, Light';font-variant-ligatures:normal;font-variant-caps:normal;font-variant-numeric:normal;font-feature-settings:normal;text-align:center;letter-spacing:0px;word-spacing:0px;writing-mode:lr-tb;text-anchor:middle;fill:#000000;fill-opacity:1;stroke:none;stroke-width:0.26458329px;stroke-linecap:butt;stroke-linejoin:miter;stroke-opacity:1"
         id="path5226"
         inkscape:connector-curvature="0" />
      <path
         d="m 64.977883,284.10886 q -5.102189,-0.0491 -8.340115,-3.38511 -3.434165,-3.6304 -3.434165,-10.00814 0,-5.83807 2.94357,-9.46848 3.188867,-3.92476 8.83071,-3.92476 5.73995,0 8.879754,3.87571 2.894511,3.63039 2.894511,9.51753 0,6.03432 -3.237925,9.76284 -3.237927,3.67947 -8.53634,3.63041 z m 8.634456,-13.39325 q 0,-4.85689 -2.011436,-7.60422 -2.207677,-3.13981 -6.62302,-3.13981 -4.317237,0 -6.623033,3.28699 -2.011439,2.89451 -2.011439,7.45704 0,4.8569 2.256737,7.80047 2.256737,2.94357 6.377735,2.94357 4.317221,0 6.62302,-3.33605 2.011436,-2.89451 2.011436,-7.40799 z"
         style="font-style:normal;font-variant:normal;font-weight:300;font-stretch:normal;font-size:98.77777863px;line-height:125%;font-family:'Helvetica Light';-inkscape-font-specification:'Helvetica Light, Light';font-variant-ligatures:normal;font-variant-caps:normal;font-variant-numeric:normal;font-feature-settings:normal;text-align:center;letter-spacing:0px;word-spacing:0px;writing-mode:lr-tb;text-anchor:middle;fill:#000000;fill-opacity:1;stroke:none;stroke-width:0.26458329px;stroke-linecap:butt;stroke-linejoin:miter;stroke-opacity:1"
         id="path5228"
         inkscape:connector-curvature="0" />
      <path
         d="m 84.731216,269.73443 v 13.68759 H 81.787649 V 258.0092 h 2.943567 v 3.82664 h 0.09812 q 2.354853,-4.51347 7.849517,-4.51347 3.237931,0 5.102189,1.42273 1.422728,1.12837 2.354858,3.48322 2.50203,-4.90595 8.29105,-4.90595 4.70972,0 6.52492,3.09075 1.37367,2.30579 1.37367,6.96645 v 16.04245 h -2.94357 v -17.5633 q 0,-5.88714 -5.44561,-5.88714 -3.53228,0 -5.73996,2.89452 -1.66802,2.20767 -1.66802,6.86833 v 13.68759 h -2.943576 v -17.5633 q 0,-5.88714 -5.445602,-5.88714 -3.532284,0 -5.739962,2.89452 -1.668026,2.20767 -1.668026,6.86833 z"
         style="font-style:normal;font-variant:normal;font-weight:300;font-stretch:normal;font-size:98.77777863px;line-height:125%;font-family:'Helvetica Light';-inkscape-font-specification:'Helvetica Light, Light';font-variant-ligatures:normal;font-variant-caps:normal;font-variant-numeric:normal;font-feature-settings:normal;text-align:center;letter-spacing:0px;word-spacing:0px;writing-mode:lr-tb;text-anchor:middle;fill:#000000;fill-opacity:1;stroke:none;stroke-width:0.26458329px;stroke-linecap:butt;stroke-linejoin:miter;stroke-opacity:1"
         id="path5230"
         inkscape:connector-curvature="0" />
      <path
         d="m 139.72615,274.05166 v -3.97381 q -2.50203,1.03024 -7.60423,1.42271 -7.16267,0.53966 -7.16267,5.39655 0,2.20768 1.71708,3.43417 1.52084,1.12837 3.77758,1.12837 3.82664,0 6.37773,-1.76615 2.89451,-2.01144 2.89451,-5.64184 z m -9.02694,-4.90595 4.07193,-0.53965 q 2.84545,-0.39248 3.8757,-0.83402 1.07931,-0.49059 1.07931,-2.6492 0,-5.15126 -6.32867,-5.15126 -6.72115,0 -7.40799,5.73997 h -2.99263 q 0.29436,-4.26818 3.33605,-6.4268 2.6492,-1.96238 7.11362,-1.96238 9.22319,0 9.22319,7.89859 v 13.83478 q 0,2.35485 1.32461,2.35485 0.63777,0 1.76614,-0.39248 v 2.3058 q -1.47178,0.49059 -2.3058,0.49059 -2.01144,0 -2.84544,-0.88307 -0.78496,-0.93212 -0.83402,-3.04169 -3.77758,4.21912 -9.46849,4.21912 -3.58134,0 -5.9362,-1.81521 -2.55108,-2.01143 -2.55108,-5.49465 0,-6.47586 8.87977,-7.65329 z"
         style="font-style:normal;font-variant:normal;font-weight:300;font-stretch:normal;font-size:98.77777863px;line-height:125%;font-family:'Helvetica Light';-inkscape-font-specification:'Helvetica Light, Light';font-variant-ligatures:normal;font-variant-caps:normal;font-variant-numeric:normal;font-feature-settings:normal;text-align:center;letter-spacing:0px;word-spacing:0px;writing-mode:lr-tb;text-anchor:middle;fill:#000000;fill-opacity:1;stroke:none;stroke-width:0.26458329px;stroke-linecap:butt;stroke-linejoin:miter;stroke-opacity:1"
         id="path5232"
         inkscape:connector-curvature="0" />
      <path
         d="m 153.7886,283.42202 h -2.94358 V 258.0092 h 2.94358 z m 0.14718,-30.95654 h -3.23793 v -4.3663 h 3.23793 z"
         style="font-style:normal;font-variant:normal;font-weight:300;font-stretch:normal;font-size:98.77777863px;line-height:125%;font-family:'Helvetica Light';-inkscape-font-specification:'Helvetica Light, Light';font-variant-ligatures:normal;font-variant-caps:normal;font-variant-numeric:normal;font-feature-settings:normal;text-align:center;letter-spacing:0px;word-spacing:0px;writing-mode:lr-tb;text-anchor:middle;fill:#000000;fill-opacity:1;stroke:none;stroke-width:0.26458329px;stroke-linecap:butt;stroke-linejoin:miter;stroke-opacity:1"
         id="path5234"
         inkscape:connector-curvature="0" />
      <path
         d="m 164.27047,269.73443 v 13.68759 H 161.3269 V 258.0092 h 2.94357 v 3.53229 q 3.97382,-4.21912 8.19294,-4.21912 5.29843,0 7.7514,3.63041 1.27555,1.86425 1.27555,5.83808 v 16.63116 h -2.94357 v -16.58211 q 0,-6.86833 -6.57398,-6.86833 -2.60015,0 -4.56253,1.52084 -1.76614,1.32461 -2.50203,3.43418 -0.63778,1.76614 -0.63778,4.80783 z"
         style="font-style:normal;font-variant:normal;font-weight:300;font-stretch:normal;font-size:98.77777863px;line-height:125%;font-family:'Helvetica Light';-inkscape-font-specification:'Helvetica Light, Light';font-variant-ligatures:normal;font-variant-caps:normal;font-variant-numeric:normal;font-feature-settings:normal;text-align:center;letter-spacing:0px;word-spacing:0px;writing-mode:lr-tb;text-anchor:middle;fill:#000000;fill-opacity:1;stroke:none;stroke-width:0.26458329px;stroke-linecap:butt;stroke-linejoin:miter;stroke-opacity:1"
         id="path5236"
         inkscape:connector-curvature="0" />
      <path
         d="m 251.17184,283.42202 h -22.27301 v -35.32284 h 3.33604 v 32.47739 h 18.93697 z"
         style="font-style:normal;font-variant:normal;font-weight:300;font-stretch:normal;font-size:98.77777863px;line-height:125%;font-family:'Helvetica Light';-inkscape-font-specification:'Helvetica Light, Light';font-variant-ligatures:normal;font-variant-caps:normal;font-variant-numeric:normal;font-feature-settings:normal;text-align:center;letter-spacing:0px;word-spacing:0px;writing-mode:lr-tb;text-anchor:middle;fill:#000000;fill-opacity:1;stroke:none;stroke-width:0.26458329px;stroke-linecap:butt;stroke-linejoin:miter;stroke-opacity:1"
         id="path5240"
         inkscape:connector-curvature="0" />
      <path
         d="m 209.5769,282.48389 c -0.0263,4.5e-4 -0.0809,-0.003 -0.10663,-0.003 -6.98359,0 -12.64358,-5.66077 -12.64358,-12.6436 0,-6.98298 5.65999,-12.64437 12.64358,-12.64437 6.98278,0 12.64337,5.66139 12.64337,12.64437 0,0.5105 -0.0292,0.97957 -0.0883,1.47421 0.3215,0.40644 0.65632,0.76532 0.89864,1.22685 1.0747,-2.42176 1.6216,-4.98913 1.6216,-7.80938 0,-10.80014 -8.75419,-19.55454 -19.55315,-19.55454 -10.79777,-2e-5 -19.55056,8.75438 -19.55056,19.55453 0,10.80032 8.75279,19.55392 19.55056,19.55392 1.98607,0 3.82055,-0.25622 5.62617,-0.8069 -0.41181,-0.28371 -0.7168,-0.65232 -1.07092,-1.00388 l 0.0292,0.0111"
         style="fill:#0220b1;fill-opacity:1;fill-rule:nonzero;stroke:none;stroke-width:0.03527778"
         id="path909"
         inkscape:connector-curvature="0" />
      <path
         d="m 206.83478,276.90192 c 0,-4.37997 3.54879,-7.93091 7.92917,-7.93091 4.37779,0 7.92877,3.55094 7.92877,7.93091 0,4.37859 -3.55098,7.92953 -7.92877,7.92953 -4.38038,0 -7.92917,-3.55094 -7.92917,-7.92953"
         style="opacity:1;vector-effect:none;fill:#0220b1;fill-opacity:1;fill-rule:nonzero;stroke:none;stroke-width:0.03527778;stroke-linecap:butt;stroke-linejoin:miter;stroke-miterlimit:4;stroke-dasharray:none;stroke-dashoffset:0;stroke-opacity:1"
         id="path911"
         inkscape:connector-curvature="0" />
    </g>
  </g>
</svg>
